HIERARCHY
ROOT Hips
{
	OFFSET	0.00	0.00	0.00
	CHANNELS 6 Xposition Yposition Zposition Zrotation Xrotation Yrotation
	JOINT Spine
	{
		OFFSET	 0.00	0.01	 0.00
		CHANNELS 3 Zrotation Xrotation Yrotation
		JOINT Spine1
		{
			OFFSET	 0.00	 2.45913012437421	 0.00
			CHANNELS 3 Zrotation Xrotation Yrotation
            JOINT Neck
            {
                OFFSET	 0.00	 2.48462964506057	 0.00
                CHANNELS 3 Zrotation Xrotation Yrotation
                JOINT Head
                {
                    OFFSET	 0.00	 0.927524780924562	 0.00
                    CHANNELS 3 Zrotation Xrotation Yrotation
                    End Site 
                    {
                        OFFSET	 0.00	 1.14999962169752	 0.00
                    }
                }
            }
			JOINT LeftShoulder
			{
				OFFSET	 0.00	 2.48462964506057	 0.00
				CHANNELS 3 Zrotation Xrotation Yrotation
				JOINT LeftUpArm
				{
					OFFSET	 0.00	 1.24881979654096	 0.00
					CHANNELS 3 Zrotation Xrotation Yrotation
					JOINT LeftForeArm
					{
						OFFSET	 0.00	2.59758046908119	 0.00
						CHANNELS 3 Zrotation Xrotation Yrotation
						JOINT LeftHand
						{
							OFFSET	 0.00	2.45542024364365	 0.00
							CHANNELS 3 Zrotation Xrotation Yrotation
							JOINT LeftHandThumb 
							{
								OFFSET	 0.00	0.00	 0.00
								CHANNELS 3 Zrotation Xrotation Yrotation
								End Site
								{
									OFFSET	 0.00	0.00	1.00000003353624
								}
							}
							JOINT L_Wrist_End 
							{
								OFFSET	 0.00	0.99999967115358	 0.00
								CHANNELS 3 Zrotation Xrotation Yrotation
								End Site 
								{
									OFFSET	 0.00	 0.00	 0.00
								}
							}
						}
					}
				}
			}
			JOINT RightShoulder
			{
				OFFSET	 0.00	 2.48462964506057	 0.00
				CHANNELS 3 Zrotation Xrotation Yrotation
				JOINT RightUpArm
				{
					OFFSET	 0.00	 1.24881979654096	 0.00
					CHANNELS 3 Zrotation Xrotation Yrotation
					JOINT RightForeArm
					{
						OFFSET	 0.00	2.59758046908119	 0.00
						CHANNELS 3 Zrotation Xrotation Yrotation
						JOINT RightHand
						{
							OFFSET	 0.00	2.45542024364365	 0.00
							CHANNELS 3 Zrotation Xrotation Yrotation
							JOINT RightHandThumb 
							{
								OFFSET	 0.00	0.00	 0.00
								CHANNELS 3 Zrotation Xrotation Yrotation
								End Site
								{
									OFFSET	 0.00	0.00	1.00000003353624
								}
							}
							JOINT R_Wrist_End 
							{
								OFFSET	 0.00	0.99999967115358	 0.00
								CHANNELS 3 Zrotation Xrotation Yrotation
								End Site 
								{
									OFFSET	 0.00	 0.00	 0.00
								}
							}
						}
					}
				}
			}
		}
	}
	JOINT LeftUpLeg
	{
		OFFSET	 1.2719394002717	 0.00	 0.00
		CHANNELS 3 Zrotation Xrotation Yrotation
		JOINT LeftLowLeg
		{
			OFFSET	 0.00	-4.3429100912261	 0.00
			CHANNELS 3 Zrotation Xrotation Yrotation
			JOINT LeftFoot
			{
				OFFSET	 0.00	-4.48767017425826	 0.00
				CHANNELS 3 Zrotation Xrotation Yrotation
				JOINT LeftToeBase
                {
                    OFFSET	 0.00	0.00	 1.51507020887566
                    CHANNELS 3 Zrotation Xrotation Yrotation
                    End Site 
                    {
                        OFFSET	 0.00	0.00	 0.75000010571191
                    }
                }
			}
		}
	}
	JOINT RightUpLeg
	{
		OFFSET	 -1.2719393604653	 0.00	 0.00
		CHANNELS 3 Zrotation Xrotation Yrotation
		JOINT RightLowLeg
		{
			OFFSET	 0.00	-4.3429100912261	 0.00
			CHANNELS 3 Zrotation Xrotation Yrotation
			JOINT RightFoot
			{
				OFFSET	 0.00	-4.48767017425826	 0.00
				CHANNELS 3 Zrotation Xrotation Yrotation
				JOINT RightToeBase
                {
                    OFFSET	 0.00	0.00	 1.51507020887566
                    CHANNELS 3 Zrotation Xrotation Yrotation
                    End Site 
                    {
                        OFFSET	 0.00	0.00	 0.749999965609858
                    }
                }   
			}
		}
	}
}
MOTION 
Frames:	11 
Frame Time: 0.02 
  -0.7328949737548828 2.615669860839844 6.71364990234375 -3.68932 53.6429 6.76358 17.9302 2.8074 -29.6364 -30.935 0.0930733 27.932 20.2224 57.6847 -21.8532 44.5337 -58.907 44.0948 -107.235 10.8243 1.82602 -27.4892 49.0437 72.0772 0.0 110.113 0.0 176.543 43.7178 -46.0645 0.0 0.0 0.0 0.0 0.0 0.0 129.8149 6.8955 -6.27262 25.8441 50.8803 -48.4314 0.0 118.081 0.0 34.6843 -6.3035 -22.0282 0.0 0.0 0.0 0.0 0.0 0.0 9.81908 -40.5604 9.28645 0.0 72.8155 0.0 -3.69966 15.87356 20.2739 0.0 -14.728218 0.0 3.74441 -41.0976 356.532 0.0 72.8977 0.0 21.9954 22.11447 -18.3449 0.0 -24.77848 0.0 
  -0.7329209899902344 2.619079895019531 6.711079711914063 -3.70492 53.5579 6.74996 17.9984 2.80462 -29.665 -31.133 0.153381 27.9699 20.3669 56.9671 -22.1798 44.6857 -58.9149 44.5168 -107.1521 10.8679 1.77095 -27.4811 49.025 72.0565 0.0 110.068 0.0 176.539 43.7166 -46.0629 0.0 0.0 0.0 0.0 0.0 0.0 129.8591 6.9538 -6.18836 25.9396 50.8615 -48.5173 0.0 118.115 0.0 34.7394 -6.65458 -22.2808 0.0 0.0 0.0 0.0 0.0 0.0 9.89 -40.5018 9.36756 0.0 72.8267 0.0 -3.71608 15.880894 20.2646 0.0 -14.7529125 0.0 3.73447 -41.0637 356.514 0.0 72.9047 0.0 22.1421 22.20092 -18.3398 0.0 -24.86922 0.0 
  -0.7330650329589844 2.6222000122070312 6.708980102539062 -3.73369 53.4651 6.7286 18.1197 2.88709 -29.6226 -31.3478 0.112328 27.927 20.2227 56.2945 -22.1039 45.057 -58.8784 44.9899 -107.0168 10.8504 1.78973 -27.5601 49.0899 72.175 0.0 110.148 0.0 176.534 43.7151 -46.0611 0.0 0.0 0.0 0.0 0.0 0.0 129.9493 6.94419 -6.16344 26.0075 50.8741 -48.5833 0.0 118.07 0.0 34.6791 -6.45146 -22.1962 0.0 0.0 0.0 0.0 0.0 0.0 9.98066 -40.4277 9.46475 0.0 72.8485 0.0 -3.73013 15.835511 20.2536 0.0 -14.716823 0.0 3.76455 -41.0066 356.54 0.0 72.899 0.0 22.2311 22.26575 -18.3086 0.0 -24.93029 0.0 
  -0.7333570098876954 2.6237200927734374 6.707139892578125 -3.6539 53.3746 6.66034 18.1448 2.90716 -29.6252 -31.5189 0.117218 27.9097 20.2721 55.5489 -22.3155 45.131 -58.8211 45.3153 -106.8787 10.8992 1.83831 -27.6201 49.0528 72.1686 0.0 110.171 0.0 176.53 43.7137 -46.0593 0.0 0.0 0.0 0.0 0.0 0.0 130.0315 6.94414 -6.30102 25.8522 50.9778 -48.4328 0.0 118.048 0.0 34.653 -6.39047 -22.1869 0.0 0.0 0.0 0.0 0.0 0.0 9.97142 -40.3449 9.51092 0.0 72.8551 0.0 -3.69973 15.812595 20.258 0.0 -14.752464 0.0 3.65425 -40.9732 356.438 0.0 72.9748 0.0 22.1864 22.3554 -18.2143 0.0 -24.9407 0.0 
  -0.7338249969482422 2.62614013671875 6.705880126953125 -3.66398 53.2996 6.65493 18.2208 2.92358 -29.6443 -31.741 0.153619 27.9186 20.2766 54.7051 -22.4422 45.541 -58.7951 46.041 -106.7814 10.848 1.83756 -27.6562 49.1436 72.334 0.0 110.608 0.0 176.526 43.7124 -46.0578 0.0 0.0 0.0 0.0 0.0 0.0 130.08011 7.02256 -6.44111 25.7662 51.0083 -48.1499 0.0 118.289 0.0 35.2573 -7.22607 -21.7892 0.0 0.0 0.0 0.0 0.0 0.0 10.0127 -40.2879 9.55193 0.0 72.8662 0.0 -3.7054 15.783629 20.2852 0.0 -14.766955 0.0 3.64817 -40.9179 356.429 0.0 72.9761 0.0 22.2445 22.398159 -18.1479 0.0 -24.988289 0.0 
  -0.7342549896240235 2.6280899047851562 6.7052001953125 -3.65243 53.2203 6.64993 18.2835 2.94708 -29.6748 -31.9426 0.184891 27.9006 20.1246 53.8926 -22.3408 46.0997 -58.7908 47.0772 -106.6939 10.8136 1.73918 -27.7797 49.1581 72.4655 0.0 110.685 0.0 176.521 43.7111 -46.0561 0.0 0.0 0.0 0.0 0.0 0.0 130.1447 7.01835 -6.45666 25.7809 51.0429 -48.1391 0.0 118.323 0.0 35.2531 -7.21335 -21.7839 0.0 0.0 0.0 0.0 0.0 0.0 10.0164 -40.2253 9.55203 0.0 72.8664 0.0 -3.71876 15.801912 20.3131 0.0 -14.800563 0.0 3.61083 -40.8474 356.406 0.0 72.9771 0.0 22.3874 22.43771 -18.0491 0.0 -25.2123 0.0 
  -0.7342389678955078 2.6304501342773436 6.704730224609375 -3.65077 53.1508 6.64284 18.3736 3.01089 -29.6616 -32.1326 0.162175 27.8491 19.7387 53.111 -21.8867 46.9139 -58.7413 48.26 -106.6142 10.7846 1.70268 -27.8675 49.2068 72.4277 0.0 110.33 0.0 176.517 43.7098 -46.0545 0.0 0.0 0.0 0.0 0.0 0.0 130.1878 6.95849 -6.41078 25.9159 51.06 -48.2788 0.0 118.167 0.0 35.0012 -6.41682 -21.4597 0.0 0.0 0.0 0.0 0.0 0.0 10.0183 -40.1681 9.5437 0.0 72.8517 0.0 -3.74732 15.845976 20.3359 0.0 -14.799921 0.0 3.58798 -40.7891 356.403 0.0 72.972 0.0 22.4639 22.48061 -17.9636 0.0 -25.2885 0.0 
  -0.7338899993896484 2.6324798583984377 6.703289794921875 -3.63417 53.0734 6.63189 18.4724 3.13297 -29.6082 -32.2619 0.0754634 27.7343 19.1763 52.293 -21.1982 47.6894 -58.6202 49.4528 -106.534 10.7731 1.76467 -27.9092 49.2263 72.4438 0.0 110.36 0.0 176.512 43.7084 -46.0528 0.0 0.0 0.0 0.0 0.0 0.0 130.2491 6.93592 -6.3477 26.0177 51.0197 -48.4095 0.0 118.207 0.0 35.0911 -6.44716 -21.3011 0.0 0.0 0.0 0.0 0.0 0.0 9.98313 -40.1183 9.48922 0.0 72.8527 0.0 -3.77563 15.889758 20.3772 0.0 -14.817553 0.0 3.53925 -40.7478 356.371 0.0 73.0002 0.0 22.5415 22.53108 -17.8963 0.0 -25.3389 0.0 
  -0.733677978515625 2.6346701049804686 6.701259765625 -3.64967 53.0396 6.6413 18.5264 3.22206 -29.5922 -32.2858 0.0692948 27.6984 18.0871 51.4114 -19.8468 48.7008 -58.4579 50.7245 -106.5448 10.736 1.76058 -27.9513 49.258 72.4636 0.0 110.352 0.0 176.51 43.7078 -46.052 0.0 0.0 0.0 0.0 0.0 0.0 130.2984 6.92087 -6.29029 25.9485 51.042 -48.5164 0.0 118.278 0.0 34.9736 -6.61899 -21.734 0.0 0.0 0.0 0.0 0.0 0.0 9.96634 -40.1232 9.43784 0.0 72.8674 0.0 -3.83919 15.926659 20.4471 0.0 -14.8364 0.0 3.52562 -40.762 356.369 0.0 73.0314 0.0 22.6856 22.582611 -17.8573 0.0 -25.3881 0.0 
  -0.7331240081787109 2.6372100830078127 6.699390258789062 -3.65663 52.9995 6.64303 18.5881 3.3115 -29.5877 -32.3318 0.0988982 27.6951 16.5058 50.4489 -17.8178 50.0412 -58.2205 52.2361 -106.517 10.7242 1.76394 -28.0102 49.2745 72.6485 0.0 110.795 0.0 176.505 43.706 -46.0499 0.0 0.0 0.0 0.0 0.0 0.0 130.3652 6.90464 -6.2498 25.5971 50.9485 -48.5162 0.0 118.038 0.0 7.57075 2.31133 39.804 0.0 0.0 0.0 0.0 0.0 0.0 9.93068 -40.1176 9.37297 0.0 72.8721 0.0 -3.87517 15.962224 20.5558 0.0 -14.844576 0.0 3.50534 -40.7734 356.368 0.0 73.0609 0.0 22.8468 22.64689 -17.8248 0.0 -25.4307 0.0 
  -0.7326439666748047 2.6395599365234377 6.697540283203125 -3.64238 52.9707 6.62903 18.5462 3.3488 -29.638 -32.2702 0.250848 27.8048 15.0006 49.3394 -15.8743 51.2254 -57.9425 53.8568 -106.595 10.7802 1.75627 -27.988 49.2809 72.6264 0.0 110.794 0.0 176.502 43.7053 -46.049 0.0 0.0 0.0 0.0 0.0 0.0 130.3116 6.88524 -6.20859 25.5821 50.9805 -48.483 0.0 118.068 0.0 7.72286 2.18047 39.8033 0.0 0.0 0.0 0.0 0.0 0.0 9.88011 -40.1199 9.30397 0.0 72.8815 0.0 -3.93525 15.979429 20.6619 0.0 -14.870806 0.0 3.47055 -40.797 356.368 0.0 73.0965 0.0 23.0469 22.69078 -17.7917 0.0 -25.423801 0.0 
